<svg xmlns="http://www.w3.org/2000/svg">
<defs>
  <symbol id="icon-arrow-right-left" viewBox="0 0 448 512">
    <path d="M438.6 150.6c12.5-12.5 12.5-32.8 0-45.3l-96-96c-12.5-12.5-32.8-12.5-45.3 0s-12.5 32.8 0 45.3L338.7 96 32 96C14.3 96 0 110.3 0 128s14.3 32 32 32l306.7 0-41.4 41.4c-12.5 12.5-12.5 32.8 0 45.3s32.8 12.5 45.3 0l96-96zm-333.3 352c12.5 12.5 32.8 12.5 45.3 0s12.5-32.8 0-45.3L109.3 416 416 416c17.7 0 32-14.3 32-32s-14.3-32-32-32l-306.7 0 41.4-41.4c12.5-12.5 12.5-32.8 0-45.3s-32.8-12.5-45.3 0l-96 96c-12.5 12.5-12.5 32.8 0 45.3l96 96z"/>
  </symbol>
  <symbol id="icon-eur" viewBox="0 0 512 512">
    <path style="fill:#41479B;" d="M400,0H112C50.144,0,0,50.144,0,112v288c0,61.856,50.144,112,112,112h288  c61.856,0,112-50.144,112-112V112C512,50.144,461.856,0,400,0z"/><g>	<path style="fill:#FFE15A;" d="M259.885,99.898l4.27,12.804l13.497,0.105c1.747,0.013,2.472,2.243,1.066,3.282l-10.857,8.018   l4.071,12.868c0.527,1.666-1.37,3.044-2.791,2.028l-10.98-7.848l-10.98,7.848c-1.422,1.016-3.318-0.362-2.791-2.028l4.071-12.868   l-10.857-8.018c-1.406-1.038-0.681-3.268,1.066-3.282l13.496-0.105l4.27-12.804C256.987,98.24,259.332,98.24,259.885,99.898z"/>	<path style="fill:#FFE15A;" d="M259.885,374.797l4.27,12.803l13.497,0.105c1.747,0.014,2.472,2.243,1.066,3.281l-10.857,8.018   l4.071,12.868c0.527,1.666-1.37,3.044-2.791,2.028l-10.98-7.848l-10.98,7.848c-1.422,1.016-3.318-0.362-2.791-2.028l4.071-12.868   l-10.857-8.018c-1.406-1.038-0.681-3.268,1.066-3.281l13.496-0.105l4.27-12.803C256.987,373.139,259.332,373.139,259.885,374.797z"/>	<path style="fill:#FFE15A;" d="M397.334,237.347l4.27,12.804l13.496,0.105c1.747,0.014,2.472,2.243,1.066,3.282l-10.857,8.018   l4.071,12.868c0.527,1.666-1.37,3.044-2.791,2.028l-10.98-7.848l-10.98,7.848c-1.422,1.016-3.319-0.362-2.792-2.028l4.071-12.868   l-10.857-8.018c-1.406-1.038-0.681-3.268,1.066-3.282l13.496-0.105l4.27-12.804C394.437,235.689,396.781,235.689,397.334,237.347z"/>	<path style="fill:#FFE15A;" d="M122.435,237.347l4.27,12.804l13.496,0.105c1.747,0.014,2.472,2.243,1.066,3.282l-10.857,8.018   l4.071,12.868c0.527,1.666-1.37,3.044-2.791,2.028l-10.98-7.848l-10.98,7.848c-1.422,1.016-3.318-0.362-2.791-2.028l4.071-12.868   l-10.857-8.018c-1.406-1.038-0.681-3.268,1.066-3.282l13.496-0.105l4.27-12.804C119.537,235.689,121.882,235.689,122.435,237.347z"/>	<path style="fill:#FFE15A;" d="M143.069,165.569l4.27,12.803l13.497,0.105c1.747,0.014,2.472,2.243,1.066,3.281l-10.857,8.018   l4.071,12.868c0.527,1.666-1.37,3.044-2.791,2.028l-10.98-7.848l-10.98,7.848c-1.422,1.016-3.319-0.362-2.791-2.028l4.071-12.868   l-10.857-8.018c-1.406-1.038-0.681-3.268,1.066-3.282l13.496-0.105l4.27-12.803C140.171,163.912,142.516,163.912,143.069,165.569z"/>	<path style="fill:#FFE15A;" d="M381.138,303.019l4.27,12.804l13.496,0.105c1.747,0.014,2.472,2.243,1.066,3.281l-10.857,8.018   l4.071,12.868c0.527,1.666-1.37,3.044-2.791,2.028l-10.98-7.848l-10.98,7.848c-1.422,1.016-3.319-0.362-2.791-2.028l4.071-12.868   l-10.857-8.018c-1.406-1.038-0.681-3.268,1.066-3.281l13.496-0.105l4.27-12.804C378.241,301.361,380.586,301.361,381.138,303.019z"/>	<path style="fill:#FFE15A;" d="M330.828,115.259l4.27,12.804l13.496,0.105c1.747,0.014,2.472,2.243,1.066,3.282l-10.857,8.018   l4.071,12.868c0.527,1.666-1.37,3.044-2.791,2.028l-10.98-7.848l-10.98,7.848c-1.422,1.016-3.319-0.362-2.792-2.028l4.071-12.868   l-10.857-8.018c-1.406-1.038-0.681-3.268,1.066-3.282l13.496-0.105l4.27-12.804C327.931,113.602,330.276,113.602,330.828,115.259z"/>	<path style="fill:#FFE15A;" d="M193.379,353.329l4.27,12.804l13.497,0.105c1.747,0.014,2.472,2.243,1.066,3.281l-10.857,8.018   l4.071,12.868c0.527,1.666-1.37,3.044-2.792,2.028l-10.98-7.848l-10.98,7.848c-1.422,1.016-3.318-0.362-2.791-2.028l4.071-12.868   l-10.857-8.018c-1.406-1.038-0.681-3.268,1.066-3.281l13.496-0.105l4.27-12.804C190.481,351.671,192.826,351.671,193.379,353.329z"/>	<path style="fill:#FFE15A;" d="M377.688,165.569l-4.27,12.803l-13.496,0.105c-1.747,0.014-2.472,2.243-1.066,3.281l10.857,8.018   l-4.071,12.868c-0.527,1.666,1.37,3.044,2.791,2.028l10.98-7.848l10.98,7.848c1.422,1.016,3.319-0.362,2.791-2.028l-4.071-12.868   l10.857-8.018c1.406-1.038,0.681-3.268-1.066-3.282l-13.496-0.105l-4.27-12.803C380.586,163.912,378.241,163.912,377.688,165.569z"/>	<path style="fill:#FFE15A;" d="M139.618,303.019l-4.27,12.804l-13.496,0.105c-1.747,0.014-2.472,2.243-1.066,3.281l10.857,8.018   l-4.071,12.868c-0.527,1.666,1.37,3.044,2.791,2.028l10.98-7.848l10.98,7.848c1.422,1.016,3.318-0.362,2.792-2.028l-4.071-12.868   l10.857-8.018c1.406-1.038,0.681-3.268-1.066-3.281l-13.497-0.105l-4.27-12.804C142.516,301.361,140.171,301.361,139.618,303.019z"/>	<path style="fill:#FFE15A;" d="M189.928,115.259l-4.27,12.804l-13.496,0.105c-1.747,0.014-2.472,2.243-1.066,3.282l10.857,8.018   l-4.071,12.868c-0.527,1.666,1.37,3.044,2.791,2.028l10.98-7.848l10.98,7.848c1.422,1.016,3.318-0.362,2.791-2.028l-4.071-12.868   l10.857-8.018c1.406-1.038,0.681-3.268-1.066-3.282l-13.497-0.105l-4.27-12.804C192.826,113.602,190.481,113.602,189.928,115.259z"/>	<path style="fill:#FFE15A;" d="M327.378,353.329l-4.27,12.804l-13.496,0.105c-1.747,0.014-2.472,2.243-1.066,3.281l10.857,8.018   l-4.071,12.868c-0.527,1.666,1.37,3.044,2.791,2.028l10.98-7.848l10.98,7.848c1.422,1.016,3.319-0.362,2.791-2.028l-4.071-12.868   l10.857-8.018c1.406-1.038,0.681-3.268-1.066-3.281l-13.496-0.105l-4.27-12.804C330.276,351.671,327.931,351.671,327.378,353.329z"/></g><g></g><g></g><g></g><g></g><g></g><g></g><g></g><g></g><g></g><g></g><g></g><g></g><g></g><g></g><g></g>
  </symbol>
  <symbol id="icon-czk" viewBox="0 0 512 512">
    <path style="fill:#41479B;" d="M32.804,32.804C12.536,53.072,0,81.072,0,112v288c0,30.928,12.536,58.928,32.804,79.196L256,256  L32.804,32.804z"/><path style="fill:#FF4B55;" d="M32.804,479.196C53.072,499.464,81.072,512,112,512h288c61.856,0,112-50.144,112-112V256H256  L32.804,479.196z"/><path style="fill:#F5F5F5;" d="M400,0H112C81.072,0,53.072,12.536,32.804,32.804L256,256h256V112C512,50.144,461.856,0,400,0z"/><g></g><g></g><g></g><g></g><g></g><g></g><g></g><g></g><g></g><g></g><g></g><g></g><g></g><g></g><g></g>
  </symbol>
  <symbol id="icon-gbp" viewBox="0 0 512 512">
    <path style="fill:#F5F5F5;" d="M400,0H112C50.144,0,0,50.144,0,112v288c0,61.856,50.144,112,112,112h288  c61.856,0,112-50.144,112-112V112C512,50.144,461.856,0,400,0z"/><polygon style="fill:#FF4B55;" points="512,229.517 282.483,229.517 282.483,0 229.517,0 229.517,229.517 0,229.517 0,282.483   229.517,282.483 229.517,512 282.483,512 282.483,282.483 512,282.483 "/><g></g><g></g><g></g><g></g><g></g><g></g><g></g><g></g><g></g><g></g><g></g><g></g><g></g><g></g><g></g>
  </symbol>
  <symbol id="icon-try" viewBox="0 0 512 512">
    <path style="fill:#FF4B55;" d="M400,0H112C50.144,0,0,50.144,0,112v288c0,61.856,50.144,112,112,112h288  c61.856,0,112-50.144,112-112V112C512,50.144,461.856,0,400,0z"/><g>	<path style="fill:#F5F5F5;" d="M277.992,211.684l15.663,20.489l24.456-8.186c1.367-0.458,2.531,1.089,1.712,2.276l-14.647,21.227   l15.343,20.73c0.858,1.159-0.253,2.743-1.635,2.331l-24.715-7.37l-14.974,20.998c-0.837,1.174-2.687,0.607-2.722-0.835   l-0.628-25.782l-24.597-7.752c-1.375-0.434-1.408-2.368-0.047-2.847l24.326-8.564l-0.228-25.789   C275.286,211.167,277.116,210.539,277.992,211.684z"/>	<path style="fill:#F5F5F5;" d="M191.378,325.906c-44.139,0-79.945-35.806-79.945-79.985c0-44.098,35.806-79.984,79.945-79.984   c16.422,0,31.567,5.051,44.187,13.599c1.933,1.309,4.139-1.231,2.52-2.913c-18.862-19.611-45.559-31.574-75.158-30.564   c-50.853,1.735-92.952,42.507-96.201,93.286c-3.722,58.163,42.332,106.499,99.672,106.499c28.245,0,53.629-11.808,71.757-30.688   c1.602-1.668-0.609-4.169-2.523-2.872C222.999,320.849,207.83,325.906,191.378,325.906z"/></g><g></g><g></g><g></g><g></g><g></g><g></g><g></g><g></g><g></g><g></g><g></g><g></g><g></g><g></g><g></g>
  </symbol>
  <symbol id="icon-usd" viewBox="0 0 512 512">
    <path style="fill:#F5F5F5;" d="M485.264,39.385H26.736C17.028,50.773,9.557,64.126,5.013,78.77h501.974   C502.443,64.126,494.972,50.773,485.264,39.385z"/>	<rect y="196.92" style="fill:#F5F5F5;" width="512" height="39.38"/>	<rect y="275.69" style="fill:#F5F5F5;" width="512" height="39.38"/>	<rect y="354.46" style="fill:#F5F5F5;" width="512" height="39.38"/>	<path style="fill:#F5F5F5;" d="M506.987,433.231H5.013c4.543,14.644,12.015,27.996,21.723,39.384h458.527   C494.972,461.227,502.443,447.875,506.987,433.231z"/></g><g>	<path style="fill:#FF4B55;" d="M400,0H112C77.852,0,47.279,15.287,26.736,39.385h458.527C464.721,15.287,434.148,0,400,0z"/>	<rect y="157.54" style="fill:#FF4B55;" width="512" height="39.38"/>	<path style="fill:#FF4B55;" d="M512,112c0-11.571-1.755-22.731-5.013-33.23H5.013C1.755,89.269,0,100.429,0,112v6.154h512V112z"/>	<rect y="236.31" style="fill:#FF4B55;" width="512" height="39.38"/>	<path style="fill:#FF4B55;" d="M512,400v-6.154H0V400c0,11.571,1.755,22.731,5.013,33.231h501.974   C510.245,422.731,512,411.571,512,400z"/>	<path style="fill:#FF4B55;" d="M485.264,472.615H26.736C47.279,496.713,77.852,512,112,512h288   C434.148,512,464.721,496.713,485.264,472.615z"/>	<rect y="315.08" style="fill:#FF4B55;" width="512" height="39.38"/></g><path style="fill:#41479B;" d="M275.692,0H112C50.144,0,0,50.144,0,112v163.692h275.692V0z"/><g>	<path style="fill:#F5F5F5;" d="M29.745,43.063c-0.262,0.829,0.681,1.515,1.389,1.009l5.463-3.904l5.463,3.904   c0.707,0.506,1.651-0.18,1.389-1.009l-2.025-6.402l5.402-3.989c0.699-0.517,0.339-1.626-0.531-1.633l-6.714-0.052l-1.146-3.436   c-2.878,2.509-5.623,5.165-8.23,7.952l1.567,1.158L29.745,43.063z"/>	<path style="fill:#F5F5F5;" d="M37.455,77.755l2.124,6.37l6.714,0.052c0.869,0.007,1.23,1.116,0.531,1.633l-5.402,3.989   l2.025,6.402c0.262,0.829-0.681,1.514-1.389,1.009l-5.463-3.905l-5.463,3.905c-0.707,0.506-1.651-0.18-1.389-1.009l2.025-6.402   l-5.402-3.989c-0.699-0.516-0.339-1.626,0.53-1.633l6.714-0.052l2.124-6.37C36.013,76.93,37.18,76.93,37.455,77.755z"/>	<path style="fill:#F5F5F5;" d="M37.455,136.688l2.124,6.37l6.714,0.052c0.869,0.007,1.23,1.116,0.531,1.633l-5.402,3.989   l2.025,6.402c0.262,0.829-0.681,1.514-1.389,1.009l-5.463-3.904l-5.463,3.904c-0.707,0.505-1.651-0.18-1.389-1.009l2.025-6.402   l-5.402-3.989c-0.699-0.516-0.339-1.626,0.53-1.633l6.714-0.052l2.124-6.37C36.013,135.863,37.18,135.863,37.455,136.688z"/>	<path style="fill:#F5F5F5;" d="M37.455,190.834l2.124,6.37l6.714,0.052c0.869,0.007,1.23,1.116,0.531,1.633l-5.402,3.989   l2.025,6.402c0.262,0.829-0.681,1.514-1.389,1.009l-5.463-3.905l-5.463,3.905c-0.707,0.505-1.651-0.18-1.389-1.009l2.025-6.402   l-5.402-3.989c-0.699-0.516-0.339-1.626,0.53-1.633l6.714-0.052l2.124-6.37C36.013,190.009,37.18,190.009,37.455,190.834z"/>	<path style="fill:#F5F5F5;" d="M37.455,240.106l2.124,6.37l6.714,0.052c0.869,0.007,1.23,1.116,0.531,1.633l-5.402,3.989   l2.025,6.402c0.262,0.829-0.681,1.514-1.389,1.009l-5.463-3.904l-5.463,3.904c-0.707,0.505-1.651-0.18-1.389-1.009l2.025-6.402   l-5.402-3.989c-0.699-0.516-0.339-1.626,0.53-1.633l6.714-0.052l2.124-6.37C36.013,239.281,37.18,239.281,37.455,240.106z"/>	<path style="fill:#F5F5F5;" d="M63.318,49.781l2.124,6.37l6.714,0.052c0.869,0.007,1.23,1.116,0.531,1.632l-5.402,3.989   l2.025,6.402c0.262,0.829-0.681,1.515-1.389,1.009L62.46,65.33l-5.463,3.905c-0.707,0.506-1.651-0.18-1.389-1.009l2.025-6.402   l-5.401-3.989c-0.699-0.516-0.339-1.626,0.53-1.632l6.714-0.052l2.124-6.37C61.876,48.956,63.043,48.956,63.318,49.781z"/>	<path style="fill:#F5F5F5;" d="M63.318,108.714l2.124,6.37l6.714,0.052c0.869,0.007,1.23,1.116,0.531,1.633l-5.402,3.989   l2.025,6.402c0.262,0.829-0.681,1.515-1.389,1.009l-5.463-3.905l-5.463,3.905c-0.707,0.506-1.651-0.18-1.389-1.009l2.025-6.402   l-5.401-3.989c-0.699-0.516-0.339-1.626,0.53-1.633l6.714-0.052l2.124-6.37C61.876,107.889,63.043,107.889,63.318,108.714z"/>	<path style="fill:#F5F5F5;" d="M63.318,164.705l2.124,6.37l6.714,0.052c0.869,0.007,1.23,1.116,0.531,1.633l-5.402,3.989   l2.025,6.402c0.262,0.829-0.681,1.514-1.389,1.009l-5.463-3.905l-5.463,3.905c-0.707,0.506-1.651-0.18-1.389-1.009l2.025-6.402   l-5.401-3.989c-0.699-0.516-0.339-1.626,0.53-1.633l6.714-0.052l2.124-6.37C61.876,163.881,63.043,163.881,63.318,164.705z"/>	<path style="fill:#F5F5F5;" d="M63.318,214.987l2.124,6.37l6.714,0.052c0.869,0.007,1.23,1.116,0.531,1.633l-5.402,3.989   l2.025,6.402c0.262,0.829-0.681,1.515-1.389,1.009l-5.463-3.904l-5.463,3.904c-0.707,0.506-1.651-0.18-1.389-1.009l2.025-6.402   l-5.401-3.989c-0.699-0.516-0.339-1.626,0.53-1.633l6.714-0.052l2.124-6.37C61.876,214.162,63.043,214.162,63.318,214.987z"/>	<path style="fill:#F5F5F5;" d="M89.181,24.618l2.124,6.37l6.714,0.052c0.869,0.007,1.23,1.116,0.531,1.632l-5.402,3.989   l2.025,6.402c0.262,0.829-0.681,1.514-1.389,1.009l-5.463-3.905l-5.463,3.905c-0.707,0.506-1.651-0.18-1.389-1.009l2.025-6.402   l-5.401-3.989c-0.699-0.516-0.339-1.626,0.53-1.632l6.714-0.052l2.124-6.37C87.739,23.794,88.906,23.794,89.181,24.618z"/>	<path style="fill:#F5F5F5;" d="M89.181,77.755l2.124,6.37l6.714,0.052c0.869,0.007,1.23,1.116,0.531,1.633l-5.402,3.989   l2.025,6.402c0.262,0.829-0.681,1.514-1.389,1.009l-5.463-3.905l-5.463,3.905c-0.707,0.506-1.651-0.18-1.389-1.009l2.025-6.402   l-5.401-3.989c-0.699-0.516-0.339-1.626,0.53-1.633l6.714-0.052l2.124-6.37C87.739,76.93,88.906,76.93,89.181,77.755z"/>	<path style="fill:#F5F5F5;" d="M89.181,136.688l2.124,6.37l6.714,0.052c0.869,0.007,1.23,1.116,0.531,1.633l-5.402,3.989   l2.025,6.402c0.262,0.829-0.681,1.514-1.389,1.009l-5.463-3.904l-5.463,3.904c-0.707,0.505-1.651-0.18-1.389-1.009l2.025-6.402   l-5.401-3.989c-0.699-0.516-0.339-1.626,0.53-1.633l6.714-0.052l2.124-6.37C87.739,135.863,88.906,135.863,89.181,136.688z"/>	<path style="fill:#F5F5F5;" d="M89.181,190.834l2.124,6.37l6.714,0.052c0.869,0.007,1.23,1.116,0.531,1.633l-5.402,3.989   l2.025,6.402c0.262,0.829-0.681,1.514-1.389,1.009l-5.463-3.905l-5.463,3.905c-0.707,0.505-1.651-0.18-1.389-1.009l2.025-6.402   l-5.401-3.989c-0.699-0.516-0.339-1.626,0.53-1.633l6.714-0.052l2.124-6.37C87.739,190.009,88.906,190.009,89.181,190.834z"/>	<path style="fill:#F5F5F5;" d="M89.181,240.106l2.124,6.37l6.714,0.052c0.869,0.007,1.23,1.116,0.531,1.633l-5.402,3.989   l2.025,6.402c0.262,0.829-0.681,1.514-1.389,1.009l-5.463-3.904l-5.463,3.904c-0.707,0.505-1.651-0.18-1.389-1.009l2.025-6.402   l-5.401-3.989c-0.699-0.516-0.339-1.626,0.53-1.633l6.714-0.052l2.124-6.37C87.739,239.281,88.906,239.281,89.181,240.106z"/>	<path style="fill:#F5F5F5;" d="M115.044,49.781l2.124,6.37l6.714,0.052c0.869,0.007,1.23,1.116,0.53,1.632l-5.401,3.989   l2.025,6.402c0.262,0.829-0.681,1.515-1.389,1.009l-5.463-3.905l-5.463,3.905c-0.707,0.506-1.651-0.18-1.389-1.009l2.025-6.402   l-5.402-3.989c-0.699-0.516-0.339-1.626,0.531-1.632l6.714-0.052l2.124-6.37C113.603,48.956,114.769,48.956,115.044,49.781z"/>	<path style="fill:#F5F5F5;" d="M115.044,108.714l2.124,6.37l6.714,0.052c0.869,0.007,1.23,1.116,0.53,1.633l-5.401,3.989   l2.025,6.402c0.262,0.829-0.681,1.515-1.389,1.009l-5.463-3.905l-5.463,3.905c-0.707,0.506-1.651-0.18-1.389-1.009l2.025-6.402   l-5.402-3.989c-0.699-0.516-0.339-1.626,0.531-1.633l6.714-0.052l2.124-6.37C113.603,107.889,114.769,107.889,115.044,108.714z"/>	<path style="fill:#F5F5F5;" d="M115.044,164.705l2.124,6.37l6.714,0.052c0.869,0.007,1.23,1.116,0.53,1.633l-5.401,3.989   l2.025,6.402c0.262,0.829-0.681,1.514-1.389,1.009l-5.463-3.905l-5.463,3.905c-0.707,0.506-1.651-0.18-1.389-1.009l2.025-6.402   l-5.402-3.989c-0.699-0.516-0.339-1.626,0.531-1.633l6.714-0.052l2.124-6.37C113.603,163.881,114.769,163.881,115.044,164.705z"/>	<path style="fill:#F5F5F5;" d="M115.044,214.987l2.124,6.37l6.714,0.052c0.869,0.007,1.23,1.116,0.53,1.633l-5.401,3.989   l2.025,6.402c0.262,0.829-0.681,1.515-1.389,1.009l-5.463-3.904l-5.463,3.904c-0.707,0.506-1.651-0.18-1.389-1.009l2.025-6.402   l-5.402-3.989c-0.699-0.516-0.339-1.626,0.531-1.633l6.714-0.052l2.124-6.37C113.603,214.162,114.769,214.162,115.044,214.987z"/>	<path style="fill:#F5F5F5;" d="M140.907,24.618l2.124,6.37l6.714,0.052c0.869,0.007,1.23,1.116,0.53,1.632l-5.401,3.989   l2.025,6.402c0.262,0.829-0.681,1.514-1.389,1.009l-5.463-3.905l-5.463,3.905c-0.707,0.506-1.651-0.18-1.389-1.009l2.025-6.402   l-5.401-3.989c-0.699-0.516-0.339-1.626,0.531-1.632l6.714-0.052l2.124-6.37C139.466,23.794,140.632,23.794,140.907,24.618z"/>	<path style="fill:#F5F5F5;" d="M140.907,77.755l2.124,6.37l6.714,0.052c0.869,0.007,1.23,1.116,0.53,1.633l-5.401,3.989L146.9,96.2   c0.262,0.829-0.681,1.514-1.389,1.009l-5.463-3.905l-5.463,3.905c-0.707,0.506-1.651-0.18-1.389-1.009l2.025-6.402l-5.401-3.989   c-0.699-0.516-0.339-1.626,0.531-1.633l6.714-0.052l2.124-6.37C139.466,76.93,140.632,76.93,140.907,77.755z"/>	<path style="fill:#F5F5F5;" d="M140.907,136.688l2.124,6.37l6.714,0.052c0.869,0.007,1.23,1.116,0.53,1.633l-5.401,3.989   l2.025,6.402c0.262,0.829-0.681,1.514-1.389,1.009l-5.463-3.904l-5.463,3.904c-0.707,0.505-1.651-0.18-1.389-1.009l2.025-6.402   l-5.401-3.989c-0.699-0.516-0.339-1.626,0.531-1.633l6.714-0.052l2.124-6.37C139.466,135.863,140.632,135.863,140.907,136.688z"/>	<path style="fill:#F5F5F5;" d="M140.907,190.834l2.124,6.37l6.714,0.052c0.869,0.007,1.23,1.116,0.53,1.633l-5.401,3.989   l2.025,6.402c0.262,0.829-0.681,1.514-1.389,1.009l-5.463-3.905l-5.463,3.905c-0.707,0.505-1.651-0.18-1.389-1.009l2.025-6.402   l-5.401-3.989c-0.699-0.516-0.339-1.626,0.531-1.633l6.714-0.052l2.124-6.37C139.466,190.009,140.632,190.009,140.907,190.834z"/>	<path style="fill:#F5F5F5;" d="M140.907,240.106l2.124,6.37l6.714,0.052c0.869,0.007,1.23,1.116,0.53,1.633l-5.401,3.989   l2.025,6.402c0.262,0.829-0.681,1.514-1.389,1.009l-5.463-3.904l-5.463,3.904c-0.707,0.505-1.651-0.18-1.389-1.009l2.025-6.402   l-5.401-3.989c-0.699-0.516-0.339-1.626,0.531-1.633l6.714-0.052l2.124-6.37C139.466,239.281,140.632,239.281,140.907,240.106z"/>	<path style="fill:#F5F5F5;" d="M166.77,49.781l2.124,6.37l6.714,0.052c0.869,0.007,1.23,1.116,0.53,1.632l-5.402,3.989l2.025,6.402   c0.262,0.829-0.682,1.515-1.389,1.009l-5.463-3.905l-5.463,3.905c-0.707,0.506-1.651-0.18-1.389-1.009l2.025-6.402l-5.401-3.989   c-0.699-0.516-0.339-1.626,0.53-1.632l6.714-0.052l2.124-6.37C165.329,48.956,166.495,48.956,166.77,49.781z"/>	<path style="fill:#F5F5F5;" d="M166.77,108.714l2.124,6.37l6.714,0.052c0.869,0.007,1.23,1.116,0.53,1.633l-5.402,3.989   l2.025,6.402c0.262,0.829-0.682,1.515-1.389,1.009l-5.463-3.905l-5.463,3.905c-0.707,0.506-1.651-0.18-1.389-1.009l2.025-6.402   l-5.401-3.989c-0.699-0.516-0.339-1.626,0.53-1.633l6.714-0.052l2.124-6.37C165.329,107.889,166.495,107.889,166.77,108.714z"/>	<path style="fill:#F5F5F5;" d="M166.77,164.705l2.124,6.37l6.714,0.052c0.869,0.007,1.23,1.116,0.53,1.633l-5.402,3.989   l2.025,6.402c0.262,0.829-0.682,1.514-1.389,1.009l-5.463-3.905l-5.463,3.905c-0.707,0.506-1.651-0.18-1.389-1.009l2.025-6.402   l-5.401-3.989c-0.699-0.516-0.339-1.626,0.53-1.633l6.714-0.052l2.124-6.37C165.329,163.881,166.495,163.881,166.77,164.705z"/>	<path style="fill:#F5F5F5;" d="M166.77,214.987l2.124,6.37l6.714,0.052c0.869,0.007,1.23,1.116,0.53,1.633l-5.402,3.989   l2.025,6.402c0.262,0.829-0.682,1.515-1.389,1.009l-5.463-3.904l-5.463,3.904c-0.707,0.506-1.651-0.18-1.389-1.009l2.025-6.402   l-5.401-3.989c-0.699-0.516-0.339-1.626,0.53-1.633l6.714-0.052l2.124-6.37C165.329,214.162,166.495,214.162,166.77,214.987z"/>	<path style="fill:#F5F5F5;" d="M192.633,24.618l2.124,6.37l6.714,0.052c0.869,0.007,1.23,1.116,0.53,1.632l-5.402,3.989   l2.025,6.402c0.262,0.829-0.682,1.514-1.389,1.009l-5.463-3.905l-5.463,3.905c-0.707,0.506-1.651-0.18-1.389-1.009l2.025-6.402   l-5.402-3.989c-0.699-0.516-0.339-1.626,0.531-1.632l6.714-0.052l2.124-6.37C191.192,23.794,192.358,23.794,192.633,24.618z"/>	<path style="fill:#F5F5F5;" d="M192.633,77.755l2.124,6.37l6.714,0.052c0.869,0.007,1.23,1.116,0.53,1.633l-5.402,3.989   l2.025,6.402c0.262,0.829-0.682,1.514-1.389,1.009l-5.463-3.905l-5.463,3.905c-0.707,0.506-1.651-0.18-1.389-1.009l2.025-6.402   l-5.402-3.989c-0.699-0.516-0.339-1.626,0.531-1.633l6.714-0.052l2.124-6.37C191.192,76.93,192.358,76.93,192.633,77.755z"/>	<path style="fill:#F5F5F5;" d="M192.633,136.688l2.124,6.37l6.714,0.052c0.869,0.007,1.23,1.116,0.53,1.633l-5.402,3.989   l2.025,6.402c0.262,0.829-0.682,1.514-1.389,1.009l-5.463-3.904l-5.463,3.904c-0.707,0.505-1.651-0.18-1.389-1.009l2.025-6.402   l-5.402-3.989c-0.699-0.516-0.339-1.626,0.531-1.633l6.714-0.052l2.124-6.37C191.192,135.863,192.358,135.863,192.633,136.688z"/>	<path style="fill:#F5F5F5;" d="M192.633,190.834l2.124,6.37l6.714,0.052c0.869,0.007,1.23,1.116,0.53,1.633l-5.402,3.989   l2.025,6.402c0.262,0.829-0.682,1.514-1.389,1.009l-5.463-3.905l-5.463,3.905c-0.707,0.505-1.651-0.18-1.389-1.009l2.025-6.402   l-5.402-3.989c-0.699-0.516-0.339-1.626,0.531-1.633l6.714-0.052l2.124-6.37C191.192,190.009,192.358,190.009,192.633,190.834z"/>	<path style="fill:#F5F5F5;" d="M192.633,240.106l2.124,6.37l6.714,0.052c0.869,0.007,1.23,1.116,0.53,1.633l-5.402,3.989   l2.025,6.402c0.262,0.829-0.682,1.514-1.389,1.009l-5.463-3.904l-5.463,3.904c-0.707,0.505-1.651-0.18-1.389-1.009l2.025-6.402   l-5.402-3.989c-0.699-0.516-0.339-1.626,0.531-1.633l6.714-0.052l2.124-6.37C191.192,239.281,192.358,239.281,192.633,240.106z"/>	<path style="fill:#F5F5F5;" d="M218.496,49.781l2.124,6.37l6.715,0.052c0.869,0.007,1.23,1.116,0.53,1.632l-5.402,3.989   l2.025,6.402c0.262,0.829-0.682,1.515-1.389,1.009l-5.463-3.905l-5.463,3.905c-0.707,0.506-1.651-0.18-1.389-1.009l2.025-6.402   l-5.402-3.989c-0.699-0.516-0.339-1.626,0.53-1.632l6.715-0.052l2.124-6.37C217.055,48.956,218.221,48.956,218.496,49.781z"/>	<path style="fill:#F5F5F5;" d="M218.496,108.714l2.124,6.37l6.715,0.052c0.869,0.007,1.23,1.116,0.53,1.633l-5.402,3.989   l2.025,6.402c0.262,0.829-0.682,1.515-1.389,1.009l-5.463-3.905l-5.463,3.905c-0.707,0.506-1.651-0.18-1.389-1.009l2.025-6.402   l-5.402-3.989c-0.699-0.516-0.339-1.626,0.53-1.633l6.715-0.052l2.124-6.37C217.055,107.889,218.221,107.889,218.496,108.714z"/>	<path style="fill:#F5F5F5;" d="M218.496,164.705l2.124,6.37l6.715,0.052c0.869,0.007,1.23,1.116,0.53,1.633l-5.402,3.989   l2.025,6.402c0.262,0.829-0.682,1.514-1.389,1.009l-5.463-3.905l-5.463,3.905c-0.707,0.506-1.651-0.18-1.389-1.009l2.025-6.402   l-5.402-3.989c-0.699-0.516-0.339-1.626,0.53-1.633l6.715-0.052l2.124-6.37C217.055,163.881,218.221,163.881,218.496,164.705z"/>	<path style="fill:#F5F5F5;" d="M218.496,214.987l2.124,6.37l6.715,0.052c0.869,0.007,1.23,1.116,0.53,1.633l-5.402,3.989   l2.025,6.402c0.262,0.829-0.682,1.515-1.389,1.009l-5.463-3.904l-5.463,3.904c-0.707,0.506-1.651-0.18-1.389-1.009l2.025-6.402   l-5.402-3.989c-0.699-0.516-0.339-1.626,0.53-1.633l6.715-0.052l2.124-6.37C217.055,214.162,218.221,214.162,218.496,214.987z"/>	<path style="fill:#F5F5F5;" d="M244.359,24.618l2.124,6.37l6.714,0.052c0.869,0.007,1.23,1.116,0.531,1.632l-5.402,3.989   l2.025,6.402c0.262,0.829-0.682,1.514-1.389,1.009l-5.463-3.905l-5.463,3.905c-0.707,0.506-1.651-0.18-1.389-1.009l2.025-6.402   l-5.402-3.989c-0.699-0.516-0.339-1.626,0.53-1.632l6.714-0.052l2.124-6.37C242.918,23.794,244.084,23.794,244.359,24.618z"/>	<path style="fill:#F5F5F5;" d="M244.359,77.755l2.124,6.37l6.714,0.052c0.869,0.007,1.23,1.116,0.531,1.633l-5.402,3.989   l2.025,6.402c0.262,0.829-0.682,1.514-1.389,1.009l-5.463-3.905l-5.463,3.905c-0.707,0.506-1.651-0.18-1.389-1.009l2.025-6.402   l-5.402-3.989c-0.699-0.516-0.339-1.626,0.53-1.633l6.714-0.052l2.124-6.37C242.918,76.93,244.084,76.93,244.359,77.755z"/>	<path style="fill:#F5F5F5;" d="M244.359,136.688l2.124,6.37l6.714,0.052c0.869,0.007,1.23,1.116,0.531,1.633l-5.402,3.989   l2.025,6.402c0.262,0.829-0.682,1.514-1.389,1.009l-5.463-3.904l-5.463,3.904c-0.707,0.505-1.651-0.18-1.389-1.009l2.025-6.402   l-5.402-3.989c-0.699-0.516-0.339-1.626,0.53-1.633l6.714-0.052l2.124-6.37C242.918,135.863,244.084,135.863,244.359,136.688z"/>	<path style="fill:#F5F5F5;" d="M244.359,190.834l2.124,6.37l6.714,0.052c0.869,0.007,1.23,1.116,0.531,1.633l-5.402,3.989   l2.025,6.402c0.262,0.829-0.682,1.514-1.389,1.009l-5.463-3.905l-5.463,3.905c-0.707,0.505-1.651-0.18-1.389-1.009l2.025-6.402   l-5.402-3.989c-0.699-0.516-0.339-1.626,0.53-1.633l6.714-0.052l2.124-6.37C242.918,190.009,244.084,190.009,244.359,190.834z"/>	<path style="fill:#F5F5F5;" d="M244.359,240.106l2.124,6.37l6.714,0.052c0.869,0.007,1.23,1.116,0.531,1.633l-5.402,3.989   l2.025,6.402c0.262,0.829-0.682,1.514-1.389,1.009l-5.463-3.904l-5.463,3.904c-0.707,0.505-1.651-0.18-1.389-1.009l2.025-6.402   l-5.402-3.989c-0.699-0.516-0.339-1.626,0.53-1.633l6.714-0.052l2.124-6.37C242.918,239.281,244.084,239.281,244.359,240.106z"/></g><g></g><g></g><g></g><g></g><g></g><g></g><g></g><g></g><g></g><g></g><g></g><g></g><g></g><g></g><g></g>
  </symbol>
</defs>
</svg>
